<?xml version="1.0" encoding="iso-8859-1"?>
<!-- Generator: Adobe Illustrator 18.1.1, SVG Export Plug-In . SVG Version: 6.00 Build 0)  -->
<svg xmlns="http://www.w3.org/2000/svg" xmlns:xlink="http://www.w3.org/1999/xlink" version="1.1" id="Capa_1" x="0px" y="0px" viewBox="0 0 90 90" style="enable-background:new 0 0 90 90;" xml:space="preserve" width="16px" height="16px">
<g>
	<g>
		<path d="M70,60c-3.436,0-6.592,1.168-9.121,3.112L34.783,47.455C34.914,46.654,35,45.837,35,45    c0-0.839-0.086-1.654-0.217-2.456l26.096-15.657C63.408,28.833,66.564,30,70,30c8.283,0,15-6.717,15-15S78.283,0,70,0    S55,6.717,55,15c0,0.837,0.086,1.654,0.219,2.455L29.123,33.112C26.594,31.168,23.438,30,20,30c-8.283,0-15,6.717-15,15    s6.717,15,15,15c3.438,0,6.594-1.167,9.123-3.113l26.096,15.657C55.086,73.346,55,74.161,55,75c0,8.283,6.717,15,15,15    s15-6.717,15-15S78.283,60,70,60z" fill="#006DF0"/>
	</g>
		</g>
<g>
</g>
<g>
</g>
<g>
</g>
<g>
</g>
<g>
</g>
<g>
</g>
<g>
</g>
<g>
</g>
<g>
</g>
<g>
</g>
<g>
</g>
<g>
</g>
<g>
</g>
<g>
</g>
<g>
</g>
</svg>
